<svg xmlns="http://www.w3.org/2000/svg" xmlns:xlink="http://www.w3.org/1999/xlink" width="1080" zoomAndPan="magnify" viewBox="0 0 810 809.999993" height="1080" preserveAspectRatio="xMidYMid meet" version="1.0"><path fill="#3e101d" d="M 518.164062 666.050781 C 512.929688 666.050781 518.164062 652.332031 525.023438 652.332031 C 531.882812 652.332031 536.828125 666.050781 531.882812 666.050781 C 531.882812 666.050781 518.164062 666.050781 518.164062 666.050781 Z M 518.164062 666.050781 " fill-opacity="1" fill-rule="nonzero"/><path fill="#3e101d" d="M 284.953125 666.050781 C 279.71875 666.050781 284.953125 652.332031 291.8125 652.332031 C 298.671875 652.332031 303.613281 666.050781 298.671875 666.050781 C 298.671875 666.050781 284.953125 666.050781 284.953125 666.050781 Z M 284.953125 666.050781 " fill-opacity="1" fill-rule="nonzero"/><path fill="#3e101d" d="M 133.550781 381.613281 C 145.523438 344.851562 204.261719 328.648438 227.917969 374.273438 C 251.570312 419.898438 236.753906 503.542969 227.992188 545.035156 C 219.230469 586.527344 152.699219 554.136719 140.777344 511.0625 C 128.855469 467.988281 121.578125 418.378906 133.550781 381.613281 Z M 133.550781 381.613281 " fill-opacity="1" fill-rule="nonzero"/><path fill="#3e101d" d="M 149.164062 604.878906 C 142.382812 634.800781 148.644531 666.050781 157.824219 666.050781 C 157.824219 666.050781 238.46875 666.050781 238.46875 666.050781 C 252.300781 666.050781 229.195312 632.796875 231.164062 588.648438 C 233.132812 544.496094 212.160156 503.273438 175.230469 512.320312 C 138.304688 521.367188 155.949219 574.957031 149.164062 604.878906 Z M 149.164062 604.878906 " fill-opacity="1" fill-rule="nonzero"/><path fill="#3e101d" d="M 384.238281 604.878906 C 377.457031 634.800781 383.71875 666.050781 392.894531 666.050781 C 392.894531 666.050781 473.542969 666.050781 473.542969 666.050781 C 487.371094 666.050781 464.265625 632.796875 466.234375 588.648438 C 468.203125 544.496094 447.230469 503.273438 410.300781 512.320312 C 373.375 521.367188 391.019531 574.957031 384.238281 604.878906 Z M 384.238281 604.878906 " fill-opacity="1" fill-rule="nonzero"/><path fill="#3e101d" d="M 475.207031 352.84375 C 438.242188 364.4375 402.757812 428.273438 393.183594 479.339844 C 383.609375 530.40625 372.4375 584.949219 414.992188 577.75 C 457.546875 570.550781 496.789062 502.902344 516.917969 440.832031 C 537.046875 378.761719 512.171875 341.25 475.207031 352.84375 Z M 475.207031 352.84375 " fill-opacity="1" fill-rule="nonzero"/><path fill="#7a0e00" d="M 551.1875 256.589844 C 521.664062 232.652344 377.648438 208.527344 321.398438 213.316406 C 265.144531 218.101562 169.386719 302.070312 149.039062 347.550781 C 128.691406 393.03125 126.300781 427.742188 170.582031 481.601562 C 214.867188 535.460938 299.84375 524.710938 387.21875 509.128906 C 474.589844 493.550781 533.140625 469.757812 550.617188 414.039062 C 568.09375 358.320312 580.710938 280.527344 551.1875 256.589844 Z M 551.1875 256.589844 " fill-opacity="1" fill-rule="nonzero"/><path fill="#3e101d" d="M 567.121094 339.398438 C 564.171875 364.492188 557.800781 391.132812 550.621094 414.035156 C 533.144531 469.761719 476.777344 494.847656 389.410156 510.421875 C 302.035156 526.003906 225.675781 540.65625 181.390625 486.792969 C 175.847656 480.046875 171.5625 462.070312 167.429688 455.867188 C 167.429688 455.867188 185.121094 476.296875 246.019531 484.128906 C 306.921875 491.960938 386.847656 472.054688 452.738281 416.199219 C 518.628906 360.34375 567.121094 339.398438 567.121094 339.398438 Z M 567.121094 339.398438 " fill-opacity="1" fill-rule="nonzero"/><path fill="#7a0e00" d="M 135.609375 391.660156 C 145.019531 351.136719 213.214844 325.546875 253.640625 370.890625 C 294.066406 416.234375 287.75 503.542969 278.984375 545.035156 C 270.222656 586.527344 207.125 570.570312 178.816406 515.511719 C 150.507812 460.457031 126.203125 432.179688 135.609375 391.660156 Z M 135.609375 391.660156 " fill-opacity="1" fill-rule="nonzero"/><path fill="#7a0e00" d="M 486.59375 345.910156 C 449.628906 357.503906 435.625 398.261719 425.089844 445.941406 C 414.550781 493.621094 441.722656 578.933594 484.277344 571.734375 C 526.832031 564.53125 514.707031 483.351562 534.835938 421.28125 C 554.964844 359.210938 523.558594 334.316406 486.59375 345.910156 Z M 486.59375 345.910156 " fill-opacity="1" fill-rule="nonzero"/><path fill="#7a0e00" d="M 200.160156 604.878906 C 193.378906 634.800781 199.640625 666.050781 208.816406 666.050781 C 208.816406 666.050781 289.464844 666.050781 289.464844 666.050781 C 303.292969 666.050781 280.1875 632.796875 282.15625 588.648438 C 284.125 544.496094 263.152344 503.273438 226.226562 512.320312 C 189.296875 521.367188 206.941406 574.957031 200.160156 604.878906 Z M 200.160156 604.878906 " fill-opacity="1" fill-rule="nonzero"/><path fill="#3e101d" d="M 275.367188 666.050781 C 270.132812 666.050781 275.367188 652.332031 282.226562 652.332031 C 289.085938 652.332031 294.027344 666.050781 289.085938 666.050781 C 289.085938 666.050781 275.367188 666.050781 275.367188 666.050781 Z M 275.367188 666.050781 " fill-opacity="1" fill-rule="nonzero"/><path fill="#3e101d" d="M 254.789062 666.050781 C 249.554688 666.050781 254.789062 652.332031 261.648438 652.332031 C 268.507812 652.332031 273.449219 666.050781 268.507812 666.050781 C 268.507812 666.050781 254.789062 666.050781 254.789062 666.050781 Z M 254.789062 666.050781 " fill-opacity="1" fill-rule="nonzero"/><path fill="#7a0e00" d="M 433.855469 604.878906 C 427.074219 634.800781 433.335938 666.050781 442.511719 666.050781 C 442.511719 666.050781 523.160156 666.050781 523.160156 666.050781 C 536.988281 666.050781 513.882812 632.796875 515.851562 588.648438 C 517.820312 544.496094 496.847656 503.273438 459.921875 512.320312 C 422.992188 521.367188 440.636719 574.957031 433.855469 604.878906 Z M 433.855469 604.878906 " fill-opacity="1" fill-rule="nonzero"/><path fill="#3e101d" d="M 508.578125 666.050781 C 503.34375 666.050781 508.578125 652.332031 515.4375 652.332031 C 522.296875 652.332031 527.242188 666.050781 522.296875 666.050781 C 522.296875 666.050781 508.578125 666.050781 508.578125 666.050781 Z M 508.578125 666.050781 " fill-opacity="1" fill-rule="nonzero"/><path fill="#3e101d" d="M 488 666.050781 C 482.765625 666.050781 488 652.332031 494.859375 652.332031 C 501.71875 652.332031 506.664062 666.050781 501.71875 666.050781 C 501.71875 666.050781 488 666.050781 488 666.050781 Z M 488 666.050781 " fill-opacity="1" fill-rule="nonzero"/><path fill="#ffb900" d="M 462.351562 366.738281 C 462.351562 366.738281 211.449219 400.296875 211.449219 400.296875 C 211.449219 400.296875 196.375 287.597656 196.375 287.597656 C 199.707031 284.40625 203.128906 281.226562 206.640625 278.082031 C 220.824219 265.367188 236.34375 253.21875 251.917969 242.9375 C 255.464844 240.589844 259.023438 238.34375 262.558594 236.214844 C 283.664062 223.488281 304.347656 214.761719 321.398438 213.3125 C 333.71875 212.261719 350.257812 212.605469 368.882812 214.023438 C 372.6875 214.320312 376.589844 214.65625 380.550781 215.027344 C 396.765625 216.574219 414.132812 218.839844 431.410156 221.636719 C 435.355469 222.269531 439.296875 222.933594 443.214844 223.625 C 443.214844 223.625 462.351562 366.738281 462.351562 366.738281 Z M 462.351562 366.738281 " fill-opacity="1" fill-rule="nonzero"/><path fill="#73322a" d="M 449.503906 356.921875 C 449.503906 356.921875 221.265625 387.445312 221.265625 387.445312 C 221.265625 387.445312 206.640625 278.082031 206.640625 278.082031 C 220.824219 265.367188 236.34375 253.21875 251.917969 242.9375 C 255.464844 240.589844 259.023438 238.34375 262.558594 236.214844 C 283.664062 223.488281 304.347656 214.761719 321.394531 213.3125 C 333.71875 212.261719 350.257812 212.605469 368.882812 214.023438 C 372.6875 214.320312 376.589844 214.65625 380.550781 215.027344 C 396.761719 216.574219 414.132812 218.839844 431.410156 221.636719 C 431.410156 221.636719 449.503906 356.921875 449.503906 356.921875 Z M 449.503906 356.921875 " fill-opacity="1" fill-rule="nonzero"/><path fill="#ffb900" d="M 393.835938 314.386719 C 393.835938 314.386719 263.800781 331.777344 263.800781 331.777344 C 263.800781 331.777344 251.917969 242.9375 251.917969 242.9375 C 255.464844 240.589844 259.023438 238.34375 262.558594 236.214844 C 283.664062 223.488281 304.347656 214.761719 321.394531 213.316406 C 333.71875 212.261719 350.257812 212.605469 368.882812 214.023438 C 372.6875 214.320312 376.589844 214.65625 380.550781 215.027344 C 380.550781 215.027344 393.835938 314.386719 393.835938 314.386719 Z M 393.835938 314.386719 " fill-opacity="1" fill-rule="nonzero"/><path fill="#ff6e00" d="M 380.996094 304.570312 C 380.996094 304.570312 273.617188 318.929688 273.617188 318.929688 C 273.617188 318.929688 262.558594 236.214844 262.558594 236.214844 C 283.664062 223.488281 304.347656 214.761719 321.394531 213.3125 C 333.71875 212.261719 350.257812 212.605469 368.882812 214.023438 C 368.882812 214.023438 380.996094 304.570312 380.996094 304.570312 Z M 380.996094 304.570312 " fill-opacity="1" fill-rule="nonzero"/><path fill="#ff6e00" d="M 337.519531 347.214844 C 337.125 344.246094 334.394531 342.160156 331.421875 342.554688 C 328.453125 342.953125 326.367188 345.683594 326.765625 348.652344 C 327.160156 351.625 329.890625 353.710938 332.863281 353.3125 C 335.832031 352.914062 337.917969 350.183594 337.519531 347.214844 Z M 337.519531 347.214844 " fill-opacity="1" fill-rule="nonzero"/><path fill="#ff6e00" d="M 246.71875 359.359375 C 246.414062 357.070312 244.308594 355.460938 242.019531 355.765625 C 239.730469 356.074219 238.121094 358.175781 238.429688 360.46875 C 238.734375 362.757812 240.839844 364.363281 243.128906 364.058594 C 245.417969 363.753906 247.027344 361.648438 246.71875 359.359375 Z M 246.71875 359.359375 " fill-opacity="1" fill-rule="nonzero"/><path fill="#ff6e00" d="M 276.945312 355.316406 C 276.613281 352.824219 274.320312 351.070312 271.828125 351.40625 C 269.332031 351.738281 267.582031 354.03125 267.914062 356.523438 C 268.25 359.015625 270.539062 360.769531 273.035156 360.433594 C 275.527344 360.101562 277.277344 357.808594 276.945312 355.316406 Z M 276.945312 355.316406 " fill-opacity="1" fill-rule="nonzero"/><path fill="#ff6e00" d="M 308.195312 351.136719 C 307.757812 347.875 304.761719 345.582031 301.496094 346.019531 C 298.234375 346.457031 295.941406 349.453125 296.378906 352.71875 C 296.816406 355.980469 299.8125 358.273438 303.078125 357.835938 C 306.339844 357.398438 308.632812 354.398438 308.195312 351.136719 Z M 308.195312 351.136719 " fill-opacity="1" fill-rule="nonzero"/><path fill="#ff6e00" d="M 417.195312 336.558594 C 416.863281 334.066406 418.613281 331.773438 421.109375 331.441406 C 423.601562 331.105469 425.894531 332.859375 426.226562 335.351562 C 426.5625 337.84375 424.808594 340.136719 422.316406 340.472656 C 419.820312 340.804688 417.53125 339.054688 417.195312 336.558594 Z M 417.195312 336.558594 " fill-opacity="1" fill-rule="nonzero"/><path fill="#ff6e00" d="M 386.566406 340.65625 C 386.175781 337.734375 388.226562 335.050781 391.148438 334.660156 C 394.070312 334.269531 396.753906 336.320312 397.144531 339.242188 C 397.535156 342.160156 395.484375 344.847656 392.5625 345.238281 C 389.640625 345.628906 386.957031 343.578125 386.566406 340.65625 Z M 386.566406 340.65625 " fill-opacity="1" fill-rule="nonzero"/><path fill="#ff6e00" d="M 356.175781 344.71875 C 355.746094 341.503906 358.003906 338.550781 361.222656 338.121094 C 364.4375 337.691406 367.390625 339.949219 367.820312 343.164062 C 368.25 346.378906 365.992188 349.332031 362.777344 349.761719 C 359.5625 350.191406 356.609375 347.933594 356.175781 344.71875 Z M 356.175781 344.71875 " fill-opacity="1" fill-rule="nonzero"/><path fill="#ff6e00" d="M 230.117188 266.757812 C 228.136719 267.023438 226.746094 268.84375 227.011719 270.824219 C 227.277344 272.804688 229.09375 274.195312 231.074219 273.929688 C 233.054688 273.664062 234.445312 271.84375 234.179688 269.863281 C 233.917969 267.882812 232.097656 266.492188 230.117188 266.757812 Z M 230.117188 266.757812 " fill-opacity="1" fill-rule="nonzero"/><path fill="#ff6e00" d="M 238.050781 326.097656 C 235.867188 326.390625 234.332031 328.398438 234.621094 330.585938 C 234.914062 332.773438 236.925781 334.308594 239.109375 334.015625 C 241.296875 333.722656 242.832031 331.714844 242.539062 329.527344 C 242.246094 327.339844 240.238281 325.804688 238.050781 326.097656 Z M 238.050781 326.097656 " fill-opacity="1" fill-rule="nonzero"/><path fill="#ff6e00" d="M 234.09375 296.515625 C 232.058594 296.785156 230.628906 298.65625 230.902344 300.691406 C 231.175781 302.726562 233.046875 304.15625 235.082031 303.886719 C 237.117188 303.613281 238.546875 301.742188 238.273438 299.707031 C 238.003906 297.671875 236.132812 296.242188 234.09375 296.515625 Z M 234.09375 296.515625 " fill-opacity="1" fill-rule="nonzero"/><path fill="#ff6e00" d="M 410.226562 250.074219 C 412.261719 249.800781 413.691406 247.929688 413.417969 245.894531 C 413.148438 243.859375 411.277344 242.429688 409.238281 242.703125 C 407.203125 242.972656 405.773438 244.84375 406.046875 246.878906 C 406.320312 248.914062 408.191406 250.34375 410.226562 250.074219 Z M 410.226562 250.074219 " fill-opacity="1" fill-rule="nonzero"/><path fill="#ff6e00" d="M 409.085938 219.707031 C 408.664062 220.980469 407.550781 221.960938 406.132812 222.152344 C 404.152344 222.414062 402.335938 221.027344 402.066406 219.046875 C 402.054688 218.964844 402.046875 218.875 402.042969 218.792969 C 404.367188 219.074219 406.722656 219.378906 409.085938 219.707031 Z M 409.085938 219.707031 " fill-opacity="1" fill-rule="nonzero"/><path fill="#ff6e00" d="M 417.070312 301.25 C 419.75 300.894531 422.207031 302.773438 422.566406 305.449219 C 422.925781 308.128906 421.046875 310.589844 418.367188 310.945312 C 415.691406 311.304688 413.230469 309.425781 412.871094 306.746094 C 412.515625 304.070312 414.394531 301.609375 417.070312 301.25 Z M 417.070312 301.25 " fill-opacity="1" fill-rule="nonzero"/><path fill="#ff6e00" d="M 413.199219 272.285156 C 415.382812 271.992188 417.394531 273.527344 417.683594 275.714844 C 417.976562 277.898438 416.441406 279.910156 414.257812 280.203125 C 412.070312 280.492188 410.0625 278.957031 409.769531 276.773438 C 409.476562 274.585938 411.011719 272.578125 413.199219 272.285156 Z M 413.199219 272.285156 " fill-opacity="1" fill-rule="nonzero"/><path fill="#7a0e00" d="M 175.132812 321.792969 C 157.144531 327.09375 127.269531 359.507812 116.558594 400.714844 C 105.84375 441.917969 103.375 470.484375 89.777344 484.90625 C 76.179688 499.328125 57.636719 498.089844 57.636719 498.089844 C 57.636719 498.089844 47.234375 491.910156 32.710938 492.835938 C 18.183594 493.765625 8.605469 504.578125 8.605469 504.578125 C 8.605469 504.578125 18.804688 510.144531 37.964844 508.90625 C 57.121094 507.671875 83.082031 503.652344 98.53125 487.894531 C 113.984375 472.132812 119.03125 453.804688 128.921875 420.628906 C 138.808594 387.453125 165.710938 381.898438 184.957031 363.769531 C 204.203125 345.636719 193.125 316.492188 175.132812 321.792969 Z M 175.132812 321.792969 " fill-opacity="1" fill-rule="nonzero"/><path fill="#3e101d" d="M 561.324219 345.285156 C 561.324219 345.285156 549 429.980469 491.246094 432.878906 C 433.492188 435.777344 461.652344 339.460938 461.652344 339.460938 C 461.652344 339.460938 561.324219 345.285156 561.324219 345.285156 Z M 561.324219 345.285156 " fill-opacity="1" fill-rule="nonzero"/><path fill="#7a0e00" d="M 588.515625 379.566406 C 588.515625 379.566406 582.992188 429.265625 622.226562 479.503906 C 661.460938 529.738281 717.441406 528.640625 750.933594 508.066406 C 784.425781 487.492188 787.773438 449.839844 790.164062 420.175781 C 792.558594 390.511719 801.484375 390.476562 801.390625 385.640625 C 801.300781 380.804688 794.152344 384.257812 792.15625 379.867188 C 790.164062 375.480469 794.75 372.6875 793.554688 369.894531 C 792.355469 367.101562 785.648438 365.554688 775.601562 382.0625 C 765.554688 398.570312 774.605469 448.488281 750.667969 470.03125 C 726.730469 491.574219 676.046875 481.332031 666.714844 432.53125 C 657.386719 383.726562 660.824219 354.152344 663.695312 324.003906 C 666.5625 293.855469 626.621094 222.445312 590.019531 205.941406 C 553.417969 189.433594 509.695312 223.476562 509.695312 223.476562 C 509.695312 223.476562 444.800781 190.761719 420.328125 214.699219 C 395.859375 238.636719 435.757812 274.011719 443.203125 319.757812 C 450.652344 365.503906 441.371094 405 482.421875 409.78125 C 523.472656 414.558594 550.789062 369.097656 550.789062 369.097656 C 550.789062 369.097656 558.804688 376.875 570.257812 379.46875 C 581.707031 382.0625 588.515625 379.566406 588.515625 379.566406 Z M 588.515625 379.566406 " fill-opacity="1" fill-rule="nonzero"/><path fill="#ffb900" d="M 570.859375 362.433594 C 580.351562 355.300781 587.675781 364.980469 602.75 383.859375 C 617.824219 402.738281 637.085938 410.871094 664.355469 406.917969 C 691.625 402.964844 718.523438 382.3125 718.523438 382.3125 C 718.523438 382.3125 696.433594 415.96875 663.136719 421.71875 C 629.835938 427.46875 608.554688 421.925781 588.75 404.839844 C 568.945312 387.75 561.363281 369.5625 570.859375 362.433594 Z M 570.859375 362.433594 " fill-opacity="1" fill-rule="nonzero"/><path fill="#3e101d" d="M 468.160156 381.433594 C 449.90625 377.835938 453.898438 371.683594 454.441406 333.417969 C 454.984375 295.152344 430.929688 252.316406 436.722656 239.152344 C 442.519531 225.984375 465.953125 231.457031 489.351562 251.402344 C 512.746094 271.351562 536.070312 291.125 529.890625 312.839844 C 523.710938 334.554688 486.414062 385.03125 468.160156 381.433594 Z M 468.160156 381.433594 " fill-opacity="1" fill-rule="nonzero"/><path fill="#ffb900" d="M 612.105469 221.753906 C 604.363281 230.71875 592.902344 236.390625 580.121094 236.390625 C 561.28125 236.390625 545.3125 224.082031 539.839844 207.054688 C 543.085938 205.84375 546.496094 204.738281 550.019531 203.839844 C 562.691406 200.605469 576.816406 199.984375 590.023438 205.941406 C 594.6875 208.042969 599.414062 211.042969 604.097656 214.738281 C 606.789062 216.859375 609.464844 219.207031 612.105469 221.753906 Z M 612.105469 221.753906 " fill-opacity="1" fill-rule="nonzero"/><path fill="#ff6e00" d="M 604.097656 214.738281 C 598.296875 221.476562 589.707031 225.738281 580.121094 225.738281 C 566.046875 225.738281 554.109375 216.542969 550.019531 203.839844 C 562.691406 200.605469 576.816406 199.984375 590.023438 205.941406 C 594.6875 208.042969 599.414062 211.039062 604.097656 214.738281 Z M 604.097656 214.738281 " fill-opacity="1" fill-rule="nonzero"/><path fill="#3e101d" d="M 588.316406 292.085938 C 588.316406 292.085938 603.746094 286.550781 612.105469 297.507812 C 620.464844 308.460938 609.339844 317.375 604.097656 312.414062 C 598.859375 307.449219 603.964844 302.875 600.316406 297.820312 C 596.667969 292.765625 588.316406 292.085938 588.316406 292.085938 Z M 588.316406 292.085938 " fill-opacity="1" fill-rule="nonzero"/></svg>